<mxfile host="Electron" agent="Mozilla/5.0 (Windows NT 10.0; Win64; x64) AppleWebKit/537.36 (KHTML, like Gecko) draw.io/26.0.9 Chrome/128.0.6613.186 Electron/32.2.5 Safari/537.36" version="26.0.9">
  <diagram name="Page-1" id="ihO8jHzChKs-WEvRPXYV">
    <mxGraphModel dx="1238" dy="216" grid="1" gridSize="10" guides="1" tooltips="1" connect="1" arrows="1" fold="1" page="1" pageScale="1" pageWidth="800" pageHeight="500" math="0" shadow="0">
      <root>
        <mxCell id="0" />
        <mxCell id="1" parent="0" />
        <mxCell id="U5Yp6QbmzzY_l9BK8zR3-53" value="&lt;div&gt;&lt;font style=&quot;font-size: 10px;&quot;&gt;&lt;b style=&quot;&quot;&gt;Responsibilities&lt;/b&gt;:&lt;/font&gt;&lt;/div&gt;&lt;div&gt;&lt;font style=&quot;font-size: 10px;&quot;&gt;&lt;br&gt;&lt;/font&gt;&lt;/div&gt;&lt;div&gt;&lt;font style=&quot;font-size: 10px;&quot;&gt;Orca Authenticatie&lt;/font&gt;&lt;/div&gt;&lt;div&gt;&lt;font style=&quot;font-size: 10px;&quot;&gt;- verify NUTS VP&lt;/font&gt;&lt;/div&gt;&lt;div&gt;&lt;font style=&quot;font-size: 10px;&quot;&gt;- ...?&lt;/font&gt;&lt;/div&gt;&lt;div&gt;&lt;font style=&quot;font-size: 10px;&quot;&gt;&lt;br&gt;&lt;/font&gt;&lt;/div&gt;&lt;div&gt;&lt;font style=&quot;font-size: 10px;&quot;&gt;Orca Authorization:&lt;/font&gt;&lt;/div&gt;&lt;div&gt;&lt;font style=&quot;font-size: 10px;&quot;&gt;- Get inputs for authorization decision (from local db or FHIR-store)&lt;/font&gt;&lt;/div&gt;&lt;div&gt;&lt;font style=&quot;font-size: 10px;&quot;&gt;- Evaluate&amp;nbsp;&lt;span style=&quot;background-color: transparent; color: light-dark(rgb(0, 0, 0), rgb(255, 255, 255));&quot;&gt;authorization decision (policy-based)&lt;/span&gt;&lt;/font&gt;&lt;/div&gt;&lt;div&gt;&lt;font style=&quot;font-size: 10px;&quot;&gt;&lt;br&gt;&lt;/font&gt;&lt;/div&gt;&lt;div&gt;&lt;font style=&quot;font-size: 10px;&quot;&gt;Orca Subscription manager:&lt;/font&gt;&lt;/div&gt;&lt;div&gt;&lt;font style=&quot;font-size: 10px;&quot;&gt;- Evaluate (server managed) subscriptiontopics (at each request)&lt;/font&gt;&lt;/div&gt;&lt;div&gt;&lt;font style=&quot;font-size: 10px;&quot;&gt;- Lookup subscription, increment event-number, save/send notification-events (with retries)&lt;/font&gt;&lt;/div&gt;&lt;div&gt;&lt;font style=&quot;font-size: 10px;&quot;&gt;- ...or create subscription and do handshake&lt;/font&gt;&lt;/div&gt;&lt;div&gt;&lt;font style=&quot;font-size: 10px;&quot;&gt;- send heartbeats at defined intervals&lt;/font&gt;&lt;/div&gt;&lt;div&gt;&lt;font style=&quot;font-size: 10px;&quot;&gt;- support:&lt;/font&gt;&lt;/div&gt;&lt;div&gt;&lt;span style=&quot;font-size: 11px; text-align: center; text-wrap: nowrap; background-color: transparent; color: light-dark(rgb(0, 0, 0), rgb(255, 255, 255));&quot;&gt;&lt;span style=&quot;white-space: pre;&quot;&gt;&#x9;&lt;/span&gt;- subscription read/search&lt;/span&gt;&lt;/div&gt;&lt;span style=&quot;font-size: 11px; text-align: center; text-wrap: nowrap; background-color: rgb(255, 255, 255);&quot;&gt;&lt;span style=&quot;white-space: pre;&quot;&gt;&#x9;&lt;/span&gt;- subscription/&amp;lt;id&amp;gt;/$status&lt;/span&gt;&lt;div&gt;&lt;font style=&quot;font-size: 10px;&quot;&gt;&lt;span style=&quot;font-size: 11px; text-align: center; text-wrap: nowrap; background-color: transparent; color: light-dark(rgb(0, 0, 0), rgb(255, 255, 255));&quot;&gt;&lt;span style=&quot;white-space: pre;&quot;&gt;&#x9;&lt;/span&gt;- subscription/&amp;lt;id&amp;gt;/$event&lt;/span&gt;&amp;nbsp;&lt;/font&gt;&lt;/div&gt;&lt;div&gt;&lt;font style=&quot;font-size: 10px;&quot;&gt;&lt;br&gt;&lt;/font&gt;&lt;/div&gt;&lt;div&gt;&lt;font style=&quot;font-size: 10px;&quot;&gt;Orca Subscription client:&lt;/font&gt;&lt;/div&gt;&lt;div&gt;&lt;font style=&quot;font-size: 10px;&quot;&gt;&lt;span style=&quot;text-align: center; text-wrap: nowrap; background-color: rgb(255, 255, 255);&quot;&gt;- receive/save event-notifications; g&lt;/span&gt;&lt;span style=&quot;background-color: light-dark(rgb(255, 255, 255), rgb(255, 255, 255)); text-align: center; text-wrap: nowrap; color: light-dark(rgb(0, 0, 0), rgb(255, 255, 255));&quot;&gt;et data and forward to event-handler&lt;/span&gt;&lt;/font&gt;&lt;/div&gt;&lt;div&gt;&lt;font style=&quot;font-size: 10px;&quot;&gt;&lt;span style=&quot;background-color: transparent; color: light-dark(rgb(0, 0, 0), rgb(255, 255, 255)); text-align: center; text-wrap: nowrap;&quot;&gt;- handle &#39;missed&#39; heartbeats and/or notifications (check at&amp;nbsp;&lt;/span&gt;&lt;span style=&quot;background-color: transparent; color: light-dark(rgb(0, 0, 0), rgb(255, 255, 255));&quot;&gt;defined intervals)&lt;/span&gt;&lt;/font&gt;&lt;/div&gt;&lt;div&gt;&lt;font style=&quot;font-size: 10px;&quot;&gt;&lt;br&gt;&lt;/font&gt;&lt;/div&gt;&lt;font style=&quot;font-size: 10px;&quot;&gt;Event-handler:&lt;br&gt;- handles Task creates/updates&lt;/font&gt;&lt;div&gt;&lt;font style=&quot;font-size: 10px;&quot;&gt;&lt;span style=&quot;white-space: pre;&quot;&gt;&#x9;&lt;/span&gt;- send enrollement biundle to ASB at task acceptances&amp;nbsp;&lt;/font&gt;&lt;/div&gt;&lt;div&gt;&lt;font style=&quot;font-size: 10px;&quot;&gt;&lt;span style=&quot;white-space: pre;&quot;&gt;&#x9;&lt;/span&gt;- create questionnaire-Task&lt;/font&gt;&lt;div&gt;&lt;font style=&quot;font-size: 10px;&quot;&gt;- handles CarePlan updates (send to NVI)&lt;/font&gt;&lt;/div&gt;&lt;div&gt;&lt;font style=&quot;font-size: 10px;&quot;&gt;&lt;br&gt;&lt;/font&gt;&lt;/div&gt;&lt;div&gt;&lt;font style=&quot;font-size: 10px;&quot;&gt;TBD: Orca Front End (or data viewer app): does that always use the local Orca proxy as backend; i.e. does Orca backend federate/forward requests to Orca&amp;nbsp; proxies at other organizations? (using some X-forward-requests-to header)&lt;/font&gt;&lt;/div&gt;&lt;/div&gt;" style="whiteSpace=wrap;html=1;rounded=1;fillColor=none;strokeColor=none;align=left;" vertex="1" parent="1">
          <mxGeometry x="345" y="536" width="410" height="420" as="geometry" />
        </mxCell>
        <mxCell id="U5Yp6QbmzzY_l9BK8zR3-111" value="Organization 1" style="rounded=1;whiteSpace=wrap;html=1;fillColor=#dae8fc;strokeColor=#6c8ebf;verticalAlign=top;arcSize=4;align=left;spacing=0;spacingLeft=6;" vertex="1" parent="1">
          <mxGeometry x="45" y="551" width="290" height="260" as="geometry" />
        </mxCell>
        <mxCell id="U5Yp6QbmzzY_l9BK8zR3-112" value="SCP-node" style="rounded=1;whiteSpace=wrap;html=1;fillColor=none;verticalAlign=top;arcSize=9;align=left;spacing=0;spacingLeft=7;" vertex="1" parent="1">
          <mxGeometry x="55" y="601" width="270" height="130" as="geometry" />
        </mxCell>
        <mxCell id="U5Yp6QbmzzY_l9BK8zR3-113" value="&lt;div&gt;Nuts&lt;/div&gt;" style="whiteSpace=wrap;html=1;rounded=1;align=center;verticalAlign=top;" vertex="1" parent="1">
          <mxGeometry x="65" y="660.3800000000001" width="40" height="60.62" as="geometry" />
        </mxCell>
        <mxCell id="U5Yp6QbmzzY_l9BK8zR3-152" style="edgeStyle=orthogonalEdgeStyle;rounded=0;orthogonalLoop=1;jettySize=auto;html=1;exitX=0.5;exitY=1;exitDx=0;exitDy=0;entryX=0.5;entryY=0;entryDx=0;entryDy=0;endArrow=none;startFill=0;" edge="1" parent="1" source="U5Yp6QbmzzY_l9BK8zR3-115" target="U5Yp6QbmzzY_l9BK8zR3-113">
          <mxGeometry relative="1" as="geometry" />
        </mxCell>
        <mxCell id="U5Yp6QbmzzY_l9BK8zR3-115" value="&lt;div&gt;Nuts admin&lt;/div&gt;" style="whiteSpace=wrap;html=1;rounded=1;" vertex="1" parent="1">
          <mxGeometry x="65" y="622" width="40" height="30" as="geometry" />
        </mxCell>
        <mxCell id="U5Yp6QbmzzY_l9BK8zR3-117" value="&lt;div&gt;EHR&lt;/div&gt;FHIR endpoint" style="shape=cylinder3;whiteSpace=wrap;html=1;boundedLbl=1;backgroundOutline=1;size=5.333342052641228;" vertex="1" parent="1">
          <mxGeometry x="195" y="741" width="60" height="60" as="geometry" />
        </mxCell>
        <mxCell id="U5Yp6QbmzzY_l9BK8zR3-118" value="database" style="shape=cylinder3;whiteSpace=wrap;html=1;boundedLbl=1;backgroundOutline=1;size=4.28573172433039;" vertex="1" parent="1">
          <mxGeometry x="136" y="741" width="50" height="35.5" as="geometry" />
        </mxCell>
        <mxCell id="U5Yp6QbmzzY_l9BK8zR3-119" value="&lt;div&gt;Orca Event&lt;/div&gt;&lt;div&gt;handler&lt;/div&gt;" style="whiteSpace=wrap;html=1;rounded=1;fillColor=#fff2cc;strokeColor=#d6b656;" vertex="1" parent="1">
          <mxGeometry x="267.12" y="606.25" width="40.5" height="45.75" as="geometry" />
        </mxCell>
        <mxCell id="U5Yp6QbmzzY_l9BK8zR3-121" value="Orca&amp;nbsp;&lt;div&gt;Front End&lt;/div&gt;" style="whiteSpace=wrap;html=1;rounded=1;fillColor=#fff2cc;strokeColor=#d6b656;" vertex="1" parent="1">
          <mxGeometry x="145" y="605.13" width="40" height="45.75" as="geometry" />
        </mxCell>
        <mxCell id="U5Yp6QbmzzY_l9BK8zR3-122" value="keyvault" style="shape=cylinder3;whiteSpace=wrap;html=1;boundedLbl=1;backgroundOutline=1;size=4.28573172433039;" vertex="1" parent="1">
          <mxGeometry x="77" y="741" width="50" height="35.5" as="geometry" />
        </mxCell>
        <mxCell id="U5Yp6QbmzzY_l9BK8zR3-140" value="local app" style="whiteSpace=wrap;html=1;rounded=1;" vertex="1" parent="1">
          <mxGeometry x="115" y="574" width="58.25" height="22.12" as="geometry" />
        </mxCell>
        <mxCell id="U5Yp6QbmzzY_l9BK8zR3-141" value="ext. app" style="whiteSpace=wrap;html=1;rounded=1;" vertex="1" parent="1">
          <mxGeometry x="198.87" y="521" width="68.25" height="22.12" as="geometry" />
        </mxCell>
        <mxCell id="U5Yp6QbmzzY_l9BK8zR3-146" style="edgeStyle=orthogonalEdgeStyle;rounded=0;orthogonalLoop=1;jettySize=auto;html=1;exitX=0.5;exitY=1;exitDx=0;exitDy=0;entryX=0.5;entryY=0;entryDx=0;entryDy=0;entryPerimeter=0;startArrow=classic;startFill=1;" edge="1" parent="1" source="U5Yp6QbmzzY_l9BK8zR3-141">
          <mxGeometry relative="1" as="geometry">
            <mxPoint x="233" y="741" as="targetPoint" />
          </mxGeometry>
        </mxCell>
        <mxCell id="U5Yp6QbmzzY_l9BK8zR3-147" style="edgeStyle=orthogonalEdgeStyle;rounded=0;orthogonalLoop=1;jettySize=auto;html=1;exitX=1;exitY=0.5;exitDx=0;exitDy=0;entryX=0.5;entryY=0;entryDx=0;entryDy=0;entryPerimeter=0;startArrow=classic;startFill=1;" edge="1" parent="1" source="U5Yp6QbmzzY_l9BK8zR3-140" target="U5Yp6QbmzzY_l9BK8zR3-117">
          <mxGeometry relative="1" as="geometry" />
        </mxCell>
        <mxCell id="U5Yp6QbmzzY_l9BK8zR3-149" style="edgeStyle=orthogonalEdgeStyle;rounded=0;orthogonalLoop=1;jettySize=auto;html=1;exitX=0;exitY=0.5;exitDx=0;exitDy=0;entryX=0.764;entryY=0.01;entryDx=0;entryDy=0;entryPerimeter=0;startArrow=classic;startFill=1;" edge="1" parent="1" source="U5Yp6QbmzzY_l9BK8zR3-119" target="U5Yp6QbmzzY_l9BK8zR3-117">
          <mxGeometry relative="1" as="geometry">
            <mxPoint x="245" y="741" as="targetPoint" />
          </mxGeometry>
        </mxCell>
        <mxCell id="U5Yp6QbmzzY_l9BK8zR3-150" style="edgeStyle=orthogonalEdgeStyle;rounded=0;orthogonalLoop=1;jettySize=auto;html=1;exitX=1;exitY=0.5;exitDx=0;exitDy=0;entryX=0.342;entryY=0.005;entryDx=0;entryDy=0;entryPerimeter=0;startArrow=classic;startFill=1;" edge="1" parent="1" source="U5Yp6QbmzzY_l9BK8zR3-121" target="U5Yp6QbmzzY_l9BK8zR3-117">
          <mxGeometry relative="1" as="geometry" />
        </mxCell>
        <mxCell id="U5Yp6QbmzzY_l9BK8zR3-116" value="Orca proxy" style="rounded=1;whiteSpace=wrap;html=1;fillColor=default;verticalAlign=top;spacing=0;align=center;" vertex="1" parent="1">
          <mxGeometry x="110" y="661" width="205" height="60" as="geometry" />
        </mxCell>
        <mxCell id="U5Yp6QbmzzY_l9BK8zR3-128" value="Subscription mngr/client" style="rounded=1;whiteSpace=wrap;html=1;fillColor=#fff2cc;strokeColor=#d6b656;" vertex="1" parent="1">
          <mxGeometry x="238" y="680.75" width="74" height="35.25" as="geometry" />
        </mxCell>
        <mxCell id="U5Yp6QbmzzY_l9BK8zR3-130" value="Authz" style="rounded=1;whiteSpace=wrap;html=1;fillColor=#fff2cc;strokeColor=#d6b656;" vertex="1" parent="1">
          <mxGeometry x="155" y="680.75" width="37.5" height="35.25" as="geometry" />
        </mxCell>
        <mxCell id="U5Yp6QbmzzY_l9BK8zR3-131" value="Authn" style="rounded=1;whiteSpace=wrap;html=1;fillColor=#fff2cc;strokeColor=#d6b656;" vertex="1" parent="1">
          <mxGeometry x="115" y="680.75" width="40" height="35.25" as="geometry" />
        </mxCell>
        <mxCell id="U5Yp6QbmzzY_l9BK8zR3-132" value="Validate" style="rounded=1;whiteSpace=wrap;html=1;fillColor=#fff2cc;strokeColor=#d6b656;" vertex="1" parent="1">
          <mxGeometry x="192.5" y="680.75" width="45.5" height="35.25" as="geometry" />
        </mxCell>
        <mxCell id="U5Yp6QbmzzY_l9BK8zR3-153" style="edgeStyle=orthogonalEdgeStyle;rounded=0;orthogonalLoop=1;jettySize=auto;html=1;exitX=0.75;exitY=1;exitDx=0;exitDy=0;entryX=0.386;entryY=0.03;entryDx=0;entryDy=0;entryPerimeter=0;endArrow=none;startFill=0;" edge="1" parent="1" source="U5Yp6QbmzzY_l9BK8zR3-113" target="U5Yp6QbmzzY_l9BK8zR3-122">
          <mxGeometry relative="1" as="geometry" />
        </mxCell>
        <mxCell id="U5Yp6QbmzzY_l9BK8zR3-154" style="edgeStyle=orthogonalEdgeStyle;rounded=0;orthogonalLoop=1;jettySize=auto;html=1;exitX=0.25;exitY=1;exitDx=0;exitDy=0;entryX=0.5;entryY=0;entryDx=0;entryDy=0;entryPerimeter=0;endArrow=none;startFill=0;" edge="1" parent="1" source="U5Yp6QbmzzY_l9BK8zR3-116" target="U5Yp6QbmzzY_l9BK8zR3-118">
          <mxGeometry relative="1" as="geometry" />
        </mxCell>
        <mxCell id="U5Yp6QbmzzY_l9BK8zR3-155" style="rounded=0;orthogonalLoop=1;jettySize=auto;html=1;exitX=0.25;exitY=1;exitDx=0;exitDy=0;entryX=0.5;entryY=0;entryDx=0;entryDy=0;entryPerimeter=0;endArrow=none;startFill=0;" edge="1" parent="1" source="U5Yp6QbmzzY_l9BK8zR3-116" target="U5Yp6QbmzzY_l9BK8zR3-122">
          <mxGeometry relative="1" as="geometry" />
        </mxCell>
        <mxCell id="U5Yp6QbmzzY_l9BK8zR3-156" style="rounded=0;orthogonalLoop=1;jettySize=auto;html=1;exitX=0.75;exitY=1;exitDx=0;exitDy=0;entryX=0.145;entryY=0;entryDx=0;entryDy=1.242862200055813;entryPerimeter=0;endArrow=none;startFill=0;" edge="1" parent="1" source="U5Yp6QbmzzY_l9BK8zR3-113" target="U5Yp6QbmzzY_l9BK8zR3-118">
          <mxGeometry relative="1" as="geometry" />
        </mxCell>
        <mxCell id="U5Yp6QbmzzY_l9BK8zR3-157" value="gateway" style="whiteSpace=wrap;html=1;rounded=1;" vertex="1" parent="1">
          <mxGeometry x="205" y="561" width="68.25" height="22.12" as="geometry" />
        </mxCell>
        <mxCell id="U5Yp6QbmzzY_l9BK8zR3-158" style="edgeStyle=orthogonalEdgeStyle;rounded=0;orthogonalLoop=1;jettySize=auto;html=1;exitX=0.75;exitY=0;exitDx=0;exitDy=0;entryX=0.665;entryY=1.005;entryDx=0;entryDy=0;entryPerimeter=0;" edge="1" parent="1" source="U5Yp6QbmzzY_l9BK8zR3-128" target="U5Yp6QbmzzY_l9BK8zR3-119">
          <mxGeometry relative="1" as="geometry" />
        </mxCell>
      </root>
    </mxGraphModel>
  </diagram>
</mxfile>
